<?xml version="1.0" encoding="UTF-8" standalone="no"?>
<!-- Uploaded to: SVG Repo, www.svgrepo.com, Generator: SVG Repo Mixer Tools -->

<svg
   width="800px"
   height="800px"
   viewBox="0 0 24 24"
   fill="none"
   version="1.1"
   id="svg1"
   sodipodi:docname="charger.svg"
   inkscape:export-filename="charger.png"
   inkscape:export-xdpi="2.4000001"
   inkscape:export-ydpi="2.4000001"
   inkscape:version="1.3.1 (91b66b0783, 2023-11-16)"
   xmlns:inkscape="http://www.inkscape.org/namespaces/inkscape"
   xmlns:sodipodi="http://sodipodi.sourceforge.net/DTD/sodipodi-0.dtd"
   xmlns="http://www.w3.org/2000/svg"
   xmlns:svg="http://www.w3.org/2000/svg">
  <defs
     id="defs1" />
  <sodipodi:namedview
     id="namedview1"
     pagecolor="#ffffff"
     bordercolor="#000000"
     borderopacity="0.25"
     inkscape:showpageshadow="2"
     inkscape:pageopacity="0.0"
     inkscape:pagecheckerboard="0"
     inkscape:deskcolor="#d1d1d1"
     inkscape:zoom="1.0367953"
     inkscape:cx="385.80421"
     inkscape:cy="452.83769"
     inkscape:window-width="2560"
     inkscape:window-height="1369"
     inkscape:window-x="2552"
     inkscape:window-y="-8"
     inkscape:window-maximized="1"
     inkscape:current-layer="svg1" />
  <rect
     style="fill:#ffffff;fill-opacity:1;stroke-width:0.0433613;stroke-linecap:round;stroke-miterlimit:3.9"
     id="rect1"
     width="10.9628"
     height="19.636312"
     x="6.5186"
     y="2.1818438" />
  <path
     fill-rule="evenodd"
     clip-rule="evenodd"
     d="M 12,24 C 18.62736,24 24,18.62736 24,12 24,5.37258 18.62736,0 12,0 5.37258,0 0,5.37258 0,12 0,18.62736 5.37258,24 12,24 Z M 9.75588,14.16 H 11.4 c 0.28284,0 0.42432,0 0.51216,0.08784 C 12,14.33568 12,14.47716 12,14.76 v 5.31588 c 0,1.06872 0,1.6032 0.23544,1.65504 0.23556,0.05184 0.45996,-0.43308 0.909,-1.40304 l 3.27768,-7.07964 c 0.71004,-1.53372 1.065,-2.30052 0.71112,-2.85444 C 16.77936,9.84 15.93432,9.84 14.24412,9.84 H 12.6 c -0.28284,0 -0.42432,0 -0.51216,-0.08784 C 12,9.66432 12,9.52284 12,9.24 V 3.924156 C 12,2.855352 12,2.320956 11.76456,2.269092 11.529,2.21724 11.3046,2.702184 10.85556,3.672072 L 7.577916,10.75164 C 6.867852,12.28548 6.51282,13.05228 6.866736,13.6062 7.220652,14.16 8.065716,14.16 9.75588,14.16 Z"
     fill="#222222"
     id="path1"
     style="fill:#caca1f;fill-opacity:1;stroke-width:1.2" />
</svg>
